<mxfile host="app.diagrams.net" modified="2023-09-21T18:42:27.204Z" agent="Mozilla/5.0 (Windows NT 10.0; Win64; x64) AppleWebKit/537.36 (KHTML, like Gecko) Chrome/117.0.0.0 Safari/537.36" etag="ufI795gjvelZWnXh0An1" version="21.8.0" type="device">
  <diagram name="Page-1" id="V90xB7qdsa4RaNqBrD74">
    <mxGraphModel dx="1674" dy="768" grid="1" gridSize="10" guides="1" tooltips="1" connect="1" arrows="1" fold="1" page="1" pageScale="1" pageWidth="827" pageHeight="1169" math="0" shadow="0">
      <root>
        <mxCell id="0" />
        <mxCell id="1" parent="0" />
        <mxCell id="zZHOFVr4RmUMuJw-N2Mc-1" value="" style="rounded=0;whiteSpace=wrap;html=1;" parent="1" vertex="1">
          <mxGeometry x="270" y="380" width="330" height="450" as="geometry" />
        </mxCell>
        <mxCell id="zZHOFVr4RmUMuJw-N2Mc-26" style="edgeStyle=orthogonalEdgeStyle;rounded=0;orthogonalLoop=1;jettySize=auto;html=1;exitX=1;exitY=0.3333333333333333;exitDx=0;exitDy=0;exitPerimeter=0;entryX=0;entryY=0.5;entryDx=0;entryDy=0;" parent="1" source="zZHOFVr4RmUMuJw-N2Mc-2" target="zZHOFVr4RmUMuJw-N2Mc-10" edge="1">
          <mxGeometry relative="1" as="geometry">
            <Array as="points">
              <mxPoint x="290" y="490" />
            </Array>
          </mxGeometry>
        </mxCell>
        <mxCell id="zZHOFVr4RmUMuJw-N2Mc-2" value="Empleado de mesa de entradas" style="shape=umlActor;verticalLabelPosition=bottom;verticalAlign=top;html=1;outlineConnect=0;" parent="1" vertex="1">
          <mxGeometry x="80" y="470" width="30" height="60" as="geometry" />
        </mxCell>
        <mxCell id="zZHOFVr4RmUMuJw-N2Mc-3" value="Servidor de la AFIP" style="shape=umlActor;verticalLabelPosition=bottom;verticalAlign=top;html=1;outlineConnect=0;" parent="1" vertex="1">
          <mxGeometry x="710" y="600" width="30" height="60" as="geometry" />
        </mxCell>
        <mxCell id="zZHOFVr4RmUMuJw-N2Mc-15" style="edgeStyle=orthogonalEdgeStyle;rounded=0;orthogonalLoop=1;jettySize=auto;html=1;exitX=1;exitY=0.3333333333333333;exitDx=0;exitDy=0;exitPerimeter=0;entryX=0;entryY=0.5;entryDx=0;entryDy=0;" parent="1" source="zZHOFVr4RmUMuJw-N2Mc-4" target="zZHOFVr4RmUMuJw-N2Mc-14" edge="1">
          <mxGeometry relative="1" as="geometry">
            <Array as="points">
              <mxPoint x="110" y="650" />
              <mxPoint x="180" y="650" />
              <mxPoint x="180" y="620" />
            </Array>
          </mxGeometry>
        </mxCell>
        <mxCell id="cdjQ2TuP-MHvI4_-UoVw-17" style="edgeStyle=orthogonalEdgeStyle;rounded=0;orthogonalLoop=1;jettySize=auto;html=1;exitX=1;exitY=0.3333333333333333;exitDx=0;exitDy=0;exitPerimeter=0;entryX=0;entryY=0.5;entryDx=0;entryDy=0;" edge="1" parent="1" source="zZHOFVr4RmUMuJw-N2Mc-4" target="cdjQ2TuP-MHvI4_-UoVw-16">
          <mxGeometry relative="1" as="geometry">
            <Array as="points">
              <mxPoint x="110" y="690" />
              <mxPoint x="180" y="690" />
              <mxPoint x="180" y="720" />
            </Array>
          </mxGeometry>
        </mxCell>
        <mxCell id="zZHOFVr4RmUMuJw-N2Mc-4" value="Empleado de rendiciones" style="shape=umlActor;verticalLabelPosition=bottom;verticalAlign=top;html=1;outlineConnect=0;" parent="1" vertex="1">
          <mxGeometry x="80" y="650" width="30" height="60" as="geometry" />
        </mxCell>
        <mxCell id="zZHOFVr4RmUMuJw-N2Mc-10" value="" style="ellipse;whiteSpace=wrap;html=1;" parent="1" vertex="1">
          <mxGeometry x="290" y="450" width="120" height="80" as="geometry" />
        </mxCell>
        <mxCell id="zZHOFVr4RmUMuJw-N2Mc-11" value="Confeccionar minuta" style="text;html=1;strokeColor=none;fillColor=none;align=center;verticalAlign=middle;whiteSpace=wrap;rounded=0;" parent="1" vertex="1">
          <mxGeometry x="320" y="475" width="60" height="30" as="geometry" />
        </mxCell>
        <mxCell id="zZHOFVr4RmUMuJw-N2Mc-23" style="edgeStyle=orthogonalEdgeStyle;rounded=0;orthogonalLoop=1;jettySize=auto;html=1;exitX=1;exitY=0.5;exitDx=0;exitDy=0;entryX=0;entryY=0.5;entryDx=0;entryDy=0;" parent="1" source="zZHOFVr4RmUMuJw-N2Mc-14" target="zZHOFVr4RmUMuJw-N2Mc-22" edge="1">
          <mxGeometry relative="1" as="geometry" />
        </mxCell>
        <mxCell id="zZHOFVr4RmUMuJw-N2Mc-14" value="Aprobar minuta" style="ellipse;whiteSpace=wrap;html=1;" parent="1" vertex="1">
          <mxGeometry x="290" y="580" width="120" height="80" as="geometry" />
        </mxCell>
        <mxCell id="zZHOFVr4RmUMuJw-N2Mc-25" style="edgeStyle=orthogonalEdgeStyle;rounded=0;orthogonalLoop=1;jettySize=auto;html=1;exitX=1;exitY=0.5;exitDx=0;exitDy=0;entryX=0;entryY=0.3333333333333333;entryDx=0;entryDy=0;entryPerimeter=0;" parent="1" source="zZHOFVr4RmUMuJw-N2Mc-22" target="zZHOFVr4RmUMuJw-N2Mc-3" edge="1">
          <mxGeometry relative="1" as="geometry" />
        </mxCell>
        <mxCell id="zZHOFVr4RmUMuJw-N2Mc-22" value="Verificar inhabilitaciÃ³n&amp;nbsp;" style="ellipse;whiteSpace=wrap;html=1;" parent="1" vertex="1">
          <mxGeometry x="460" y="580" width="120" height="80" as="geometry" />
        </mxCell>
        <mxCell id="cdjQ2TuP-MHvI4_-UoVw-16" value="Imprimir listado" style="ellipse;whiteSpace=wrap;html=1;" vertex="1" parent="1">
          <mxGeometry x="290" y="680" width="120" height="80" as="geometry" />
        </mxCell>
      </root>
    </mxGraphModel>
  </diagram>
</mxfile>
